<?xml version="1.0" encoding="utf-8"?>
<!-- Generator: Adobe Illustrator 19.0.0, SVG Export Plug-In . SVG Version: 6.00 Build 0)  -->
<svg version="1.1" id="Capa_1" xmlns="http://www.w3.org/2000/svg" xmlns:xlink="http://www.w3.org/1999/xlink" x="0px" y="0px"
	 viewBox="0 0 512 512" style="enable-background:new 0 0 512 512;" xml:space="preserve">
<style type="text/css">
	.st0{fill:#4C4D4D;}
	.st1{display:none;}
	.st2{display:inline;fill:#FFFFFF;}
	.st3{fill:#FFFFFF;}
</style>
<circle id="XMLID_6_" class="st0" cx="257.4" cy="256" r="256"/>
<g id="STOP" class="st1">
	<path id="XMLID_2_" class="st2" d="M219.2,392.7h-27.9c-9,0-16.3-7.3-16.3-16.3V135.6c0-9,7.3-16.3,16.3-16.3h27.9
		c9,0,16.3,7.3,16.3,16.3v240.8C235.5,385.4,228.2,392.7,219.2,392.7z"/>
	<path id="XMLID_3_" class="st2" d="M320.7,392.7h-27.9c-9,0-16.3-7.3-16.3-16.3V135.6c0-9,7.3-16.3,16.3-16.3h27.9
		c9,0,16.3,7.3,16.3,16.3v240.8C337,385.4,329.7,392.7,320.7,392.7z"/>
</g>
<g id="NEXT" class="st1">
	<path id="XMLID_5_" class="st2" d="M190.8,142h26.5c2.5,0,4.8,1.1,6.4,3.1l84,105.9c2.3,3,2.4,7.1,0,10.1l-83.1,105.8
		c-1.5,2-3.9,3.1-6.4,3.1h-27.4c-4.5,0-8.2-3.6-8.2-8.2V150.2C182.6,145.6,186.2,142,190.8,142z"/>
	<path id="XMLID_4_" class="st2" d="M246.8,145.8h27.5c1.8,0,3.5,0.8,4.7,2.2L364,252.2c1.8,2.2,1.8,5.4,0,7.7L279,364
		c-1.2,1.4-2.9,2.2-4.7,2.2h-27.5c-5.1,0-7.9-5.9-4.7-9.9l77.7-96.5c1.8-2.2,1.8-5.4,0-7.6l-77.7-96.5
		C238.9,151.7,241.7,145.8,246.8,145.8z"/>
</g>
<g id="PREV" class="st1">
	<path id="XMLID_7_" class="st2" d="M331.7,370h-26.5c-2.5,0-4.8-1.1-6.4-3.1l-84-105.9c-2.3-3-2.4-7.1,0-10.1l83.1-105.8
		c1.5-2,3.9-3.1,6.4-3.1h27.4c4.5,0,8.2,3.6,8.2,8.2v211.7C339.9,366.4,336.2,370,331.7,370z"/>
	<path id="XMLID_1_" class="st2" d="M275.7,366.2h-27.5c-1.8,0-3.5-0.8-4.7-2.2l-85.1-104.1c-1.8-2.2-1.8-5.4,0-7.7L243.5,148
		c1.2-1.4,2.9-2.2,4.7-2.2h27.5c5.1,0,7.9,5.9,4.7,9.9l-77.7,96.5c-1.8,2.2-1.8,5.4,0,7.6l77.7,96.5
		C283.6,360.3,280.8,366.2,275.7,366.2z"/>
</g>
<g id="Capa_5">
	<path id="XMLID_8_" class="st3" d="M354.8,263.7L218.5,378.7c-6.5,5.5-16.5,0.9-16.5-7.7V140.9c0-8.6,10-13.2,16.5-7.7l136.4,115.1
		C359.6,252.3,359.6,259.7,354.8,263.7z"/>
</g>
</svg>
